<?xml version="1.0" encoding="UTF-8" standalone="no"?>
<!DOCTYPE svg PUBLIC "-//W3C//DTD SVG 1.1//EN"
 "http://www.w3.org/Graphics/SVG/1.1/DTD/svg11.dtd">
<!-- Generated by graphviz version 2.26.3 (20100126.1600)
 -->
<!-- Title: _anonymous_0 Pages: 1 -->
<svg width="374pt" height="144pt"
 viewBox="0.00 0.00 374.00 144.00" xmlns="http://www.w3.org/2000/svg" xmlns:xlink="http://www.w3.org/1999/xlink">
<g id="graph1" class="graph" transform="scale(1 1) rotate(0) translate(4 140)">
<title>_anonymous_0</title>
<polygon fill="white" stroke="white" points="-4,5 -4,-140 371,-140 371,5 -4,5"/>
<!-- E3 -->
<g id="node1" class="node"><title>E3</title>
<ellipse fill="none" stroke="black" cx="241" cy="-72" rx="28.0615" ry="28.5"/>
<ellipse fill="none" stroke="black" cx="241" cy="-72" rx="32" ry="32.5"/>
<text text-anchor="middle" x="241" y="-68.4" font-family="Times Roman,serif" font-size="14.00">E3</text>
</g>
<!-- E3&#45;&gt;E3 -->
<g id="edge2" class="edge"><title>E3&#45;&gt;E3</title>
<path fill="none" stroke="#8dad48" d="M231.31,-98.472C230.76,-109.09 233.99,-118 241,-118 245.6,-118 248.57,-114.16 249.92,-108.52"/>
<polygon fill="#8dad48" stroke="#8dad48" points="253.416,-108.71 250.69,-98.472 246.436,-108.175 253.416,-108.71"/>
<text text-anchor="middle" x="241" y="-123.4" font-family="Times Roman,serif" font-size="14.00">b</text>
</g>
<!-- E2 -->
<g id="node3" class="node"><title>E2</title>
<ellipse fill="none" stroke="black" cx="341" cy="-41" rx="24" ry="24.5"/>
<text text-anchor="middle" x="341" y="-37.4" font-family="Times Roman,serif" font-size="14.00">E2</text>
</g>
<!-- E3&#45;&gt;E2 -->
<g id="edge4" class="edge"><title>E3&#45;&gt;E2</title>
<path fill="none" stroke="#8dad48" d="M269.14,-67.287C278.43,-65.41 288.76,-62.978 298,-60 301.82,-58.768 305.77,-57.307 309.64,-55.751"/>
<polygon fill="#8dad48" stroke="#8dad48" points="311.193,-58.894 319.03,-51.764 308.457,-52.4507 311.193,-58.894"/>
<text text-anchor="middle" x="293" y="-67.4" font-family="Times Roman,serif" font-size="14.00">a</text>
</g>
<!-- E2&#45;&gt;E3 -->
<g id="edge6" class="edge"><title>E2&#45;&gt;E3</title>
<path fill="none" stroke="#8dad48" d="M316.78,-35.96C307.58,-34.989 297.12,-35.048 288,-38 281.84,-39.995 275.81,-43.134 270.23,-46.715"/>
<polygon fill="#8dad48" stroke="#8dad48" points="268.033,-43.9818 261.88,-52.607 272.069,-49.7012 268.033,-43.9818"/>
<text text-anchor="middle" x="293" y="-43.4" font-family="Times Roman,serif" font-size="14.00">b</text>
</g>
<!-- E2&#45;&gt;E2 -->
<g id="edge8" class="edge"><title>E2&#45;&gt;E2</title>
<path fill="none" stroke="#8dad48" d="M332.18,-63.469C331.22,-73.893 334.16,-83 341,-83 345.38,-83 348.17,-79.262 349.35,-73.836"/>
<polygon fill="#8dad48" stroke="#8dad48" points="352.863,-73.6173 349.82,-63.469 345.871,-73.3002 352.863,-73.6173"/>
<text text-anchor="middle" x="341" y="-88.4" font-family="Times Roman,serif" font-size="14.00">a</text>
</g>
<!-- E1 -->
<g id="node7" class="node"><title>E1</title>
<ellipse fill="none" stroke="black" cx="141" cy="-24" rx="24" ry="24.5"/>
<text text-anchor="middle" x="141" y="-20.4" font-family="Times Roman,serif" font-size="14.00">E1</text>
</g>
<!-- E1&#45;&gt;E3 -->
<g id="edge10" class="edge"><title>E1&#45;&gt;E3</title>
<path fill="none" stroke="#8dad48" d="M163.19,-34.653C175.84,-40.725 191.97,-48.468 206.27,-55.328"/>
<polygon fill="#8dad48" stroke="#8dad48" points="204.81,-58.5096 215.34,-59.682 207.84,-52.199 204.81,-58.5096"/>
<text text-anchor="middle" x="189" y="-54.4" font-family="Times Roman,serif" font-size="14.00">b</text>
</g>
<!-- E1&#45;&gt;E2 -->
<g id="edge12" class="edge"><title>E1&#45;&gt;E2</title>
<path fill="none" stroke="#8dad48" d="M165.42,-19.551C191.49,-15.528 233.93,-11.068 270,-17 283.04,-19.144 296.91,-23.365 308.89,-27.676"/>
<polygon fill="#8dad48" stroke="#8dad48" points="307.868,-31.0309 318.46,-31.276 310.333,-24.4792 307.868,-31.0309"/>
<text text-anchor="middle" x="241" y="-23.4" font-family="Times Roman,serif" font-size="14.00">a</text>
</g>
<!-- ∅ -->
<g id="node10" class="node"><title>∅</title>
<ellipse fill="none" stroke="black" cx="21" cy="-24" rx="19.8829" ry="18.5"/>
<text text-anchor="middle" x="21" y="-20.4" font-family="Times Roman,serif" font-size="14.00">∅</text>
</g>
<!-- ∅&#45;&gt;E1 -->
<g id="edge14" class="edge"><title>∅&#45;&gt;E1</title>
<path fill="none" stroke="#8dad48" d="M41.629,-24C59.285,-24 85.086,-24 105.97,-24"/>
<polygon fill="#8dad48" stroke="#8dad48" points="106.07,-27.5001 116.07,-24 106.07,-20.5001 106.07,-27.5001"/>
<text text-anchor="middle" x="79" y="-29.4" font-family="Times Roman,serif" font-size="14.00">Inicio</text>
</g>
</g>
</svg>
