<?xml version="1.0" encoding="UTF-8" standalone="no"?>
<!DOCTYPE svg PUBLIC "-//W3C//DTD SVG 1.1//EN"
 "http://www.w3.org/Graphics/SVG/1.1/DTD/svg11.dtd">
<!-- Generated by graphviz version 2.26.3 (20100126.1600)
 -->
<!-- Title: _anonymous_0 Pages: 1 -->
<svg width="254pt" height="90pt"
 viewBox="0.00 0.00 254.00 89.58" xmlns="http://www.w3.org/2000/svg" xmlns:xlink="http://www.w3.org/1999/xlink">
<g id="graph1" class="graph" transform="scale(1 1) rotate(0) translate(4 85.584)">
<title>_anonymous_0</title>
<polygon fill="white" stroke="white" points="-4,5 -4,-85.584 251,-85.584 251,5 -4,5"/>
<!-- 1 -->
<g id="node1" class="node"><title>1</title>
<ellipse fill="none" stroke="black" cx="135" cy="-23.584" rx="18" ry="18.5"/>
<text text-anchor="middle" x="135" y="-19.984" font-family="Times Roman,serif" font-size="14.00">1</text>
</g>
<!-- 1&#45;&gt;1 -->
<g id="edge2" class="edge"><title>1&#45;&gt;1</title>
<path fill="none" stroke="#8dad48" d="M127.62,-40.248C125.98,-50.209 128.44,-59.584 135,-59.584 139.2,-59.584 141.72,-55.737 142.56,-50.353"/>
<polygon fill="#8dad48" stroke="#8dad48" points="146.058,-50.184 142.38,-40.248 139.059,-50.3088 146.058,-50.184"/>
<text text-anchor="middle" x="135" y="-64.984" font-family="Times Roman,serif" font-size="14.00">a</text>
</g>
<!-- 0 -->
<g id="node3" class="node"><title>0</title>
<ellipse fill="none" stroke="black" cx="223" cy="-23.584" rx="22.0755" ry="22.5"/>
<ellipse fill="none" stroke="black" cx="223" cy="-23.584" rx="26" ry="26.5"/>
<text text-anchor="middle" x="223" y="-19.984" font-family="Times Roman,serif" font-size="14.00">0</text>
</g>
<!-- 1&#45;&gt;0 -->
<g id="edge4" class="edge"><title>1&#45;&gt;0</title>
<path fill="none" stroke="#8dad48" d="M153.66,-23.584C164.2,-23.584 177.67,-23.584 189.94,-23.584"/>
<polygon fill="#8dad48" stroke="#8dad48" points="190.3,-27.0841 200.3,-23.584 190.3,-20.0841 190.3,-27.0841"/>
<text text-anchor="middle" x="177" y="-28.984" font-family="Times Roman,serif" font-size="14.00">b</text>
</g>
<!-- 0&#45;&gt;1 -->
<g id="edge6" class="edge"><title>0&#45;&gt;1</title>
<path fill="none" stroke="#8dad48" d="M205.5,-9.5415C195.86,-3.4782 183.53,1.5844 172,-1.5844 167.42,-2.8439 162.83,-4.8352 158.52,-7.1171"/>
<polygon fill="#8dad48" stroke="#8dad48" points="156.441,-4.28135 149.64,-12.405 160.023,-10.2958 156.441,-4.28135"/>
<text text-anchor="middle" x="177" y="-6.984" font-family="Times Roman,serif" font-size="14.00">a</text>
</g>
<!-- 0&#45;&gt;0 -->
<g id="edge8" class="edge"><title>0&#45;&gt;0</title>
<path fill="none" stroke="#8dad48" d="M214.63,-44.165C213.47,-54.429 216.26,-63.584 223,-63.584 227.32,-63.584 230.01,-59.827 231.09,-54.428"/>
<polygon fill="#8dad48" stroke="#8dad48" points="234.596,-54.2568 231.37,-44.165 227.598,-54.0658 234.596,-54.2568"/>
<text text-anchor="middle" x="223" y="-68.984" font-family="Times Roman,serif" font-size="14.00">b</text>
</g>
<!-- ∅ -->
<g id="node7" class="node"><title>∅</title>
<ellipse fill="none" stroke="black" cx="21" cy="-23.584" rx="19.8829" ry="18.5"/>
<text text-anchor="middle" x="21" y="-19.984" font-family="Times Roman,serif" font-size="14.00">∅</text>
</g>
<!-- ∅&#45;&gt;1 -->
<g id="edge10" class="edge"><title>∅&#45;&gt;1</title>
<path fill="none" stroke="#8dad48" d="M41.645,-23.584C59.702,-23.584 86.113,-23.584 106.24,-23.584"/>
<polygon fill="#8dad48" stroke="#8dad48" points="106.4,-27.0841 116.4,-23.584 106.4,-20.0841 106.4,-27.0841"/>
<text text-anchor="middle" x="79" y="-28.984" font-family="Times Roman,serif" font-size="14.00">Inicio</text>
</g>
</g>
</svg>
