<?xml version="1.0" encoding="UTF-8" standalone="no"?>
<!DOCTYPE svg PUBLIC "-//W3C//DTD SVG 1.1//EN"
 "http://www.w3.org/Graphics/SVG/1.1/DTD/svg11.dtd">
<!-- Generated by graphviz version 2.26.3 (20100126.1600)
 -->
<!-- Title: _anonymous_0 Pages: 1 -->
<svg width="782pt" height="201pt"
 viewBox="0.00 0.00 782.00 201.00" xmlns="http://www.w3.org/2000/svg" xmlns:xlink="http://www.w3.org/1999/xlink">
<g id="graph1" class="graph" transform="scale(1 1) rotate(0) translate(4 197)">
<title>_anonymous_0</title>
<polygon fill="white" stroke="white" points="-4,5 -4,-197 779,-197 779,5 -4,5"/>
<!-- E5 -->
<g id="node1" class="node"><title>E5</title>
<ellipse fill="none" stroke="black" cx="237" cy="-77" rx="24" ry="24.5"/>
<text text-anchor="middle" x="237" y="-73.4" font-family="Times Roman,serif" font-size="14.00">E5</text>
</g>
<!-- E3 -->
<g id="node2" class="node"><title>E3</title>
<ellipse fill="none" stroke="black" cx="333" cy="-103" rx="24" ry="24.5"/>
<text text-anchor="middle" x="333" y="-99.4" font-family="Times Roman,serif" font-size="14.00">E3</text>
</g>
<!-- E5&#45;&gt;E3 -->
<g id="edge2" class="edge"><title>E5&#45;&gt;E3</title>
<path fill="none" stroke="#8dad48" d="M260.73,-83.427C272.38,-86.583 286.63,-90.441 299.38,-93.895"/>
<polygon fill="#8dad48" stroke="#8dad48" points="298.643,-97.3214 309.21,-96.557 300.473,-90.5647 298.643,-97.3214"/>
<text text-anchor="middle" x="285" y="-95.4" font-family="Times Roman,serif" font-size="14.00">Ɛ</text>
</g>
<!-- E1 -->
<g id="node4" class="node"><title>E1</title>
<ellipse fill="none" stroke="black" cx="333" cy="-169" rx="24" ry="24.5"/>
<text text-anchor="middle" x="333" y="-165.4" font-family="Times Roman,serif" font-size="14.00">E1</text>
</g>
<!-- E5&#45;&gt;E1 -->
<g id="edge4" class="edge"><title>E5&#45;&gt;E1</title>
<path fill="none" stroke="#8dad48" d="M254.61,-93.874C269.53,-108.18 291.12,-128.87 307.87,-144.91"/>
<polygon fill="#8dad48" stroke="#8dad48" points="305.54,-147.525 315.18,-151.92 310.385,-142.472 305.54,-147.525"/>
<text text-anchor="middle" x="285" y="-130.4" font-family="Times Roman,serif" font-size="14.00">Ɛ</text>
</g>
<!-- E4 -->
<g id="node8" class="node"><title>E4</title>
<ellipse fill="none" stroke="black" cx="429" cy="-103" rx="24" ry="24.5"/>
<text text-anchor="middle" x="429" y="-99.4" font-family="Times Roman,serif" font-size="14.00">E4</text>
</g>
<!-- E3&#45;&gt;E4 -->
<g id="edge8" class="edge"><title>E3&#45;&gt;E4</title>
<path fill="none" stroke="#8dad48" d="M357.72,-103C368.81,-103 382.08,-103 394.15,-103"/>
<polygon fill="#8dad48" stroke="#8dad48" points="394.36,-106.5 404.36,-103 394.36,-99.5001 394.36,-106.5"/>
<text text-anchor="middle" x="381" y="-108.4" font-family="Times Roman,serif" font-size="14.00">b</text>
</g>
<!-- E2 -->
<g id="node6" class="node"><title>E2</title>
<ellipse fill="none" stroke="black" cx="429" cy="-169" rx="24" ry="24.5"/>
<text text-anchor="middle" x="429" y="-165.4" font-family="Times Roman,serif" font-size="14.00">E2</text>
</g>
<!-- E1&#45;&gt;E2 -->
<g id="edge6" class="edge"><title>E1&#45;&gt;E2</title>
<path fill="none" stroke="#8dad48" d="M357.72,-169C368.81,-169 382.08,-169 394.15,-169"/>
<polygon fill="#8dad48" stroke="#8dad48" points="394.36,-172.5 404.36,-169 394.36,-165.5 394.36,-172.5"/>
<text text-anchor="middle" x="381" y="-174.4" font-family="Times Roman,serif" font-size="14.00">a</text>
</g>
<!-- E9 -->
<g id="node10" class="node"><title>E9</title>
<ellipse fill="none" stroke="black" cx="525" cy="-77" rx="24" ry="24.5"/>
<text text-anchor="middle" x="525" y="-73.4" font-family="Times Roman,serif" font-size="14.00">E9</text>
</g>
<!-- E2&#45;&gt;E9 -->
<g id="edge16" class="edge"><title>E2&#45;&gt;E9</title>
<path fill="none" stroke="#8dad48" d="M446.61,-152.13C461.53,-137.82 483.12,-117.13 499.87,-101.09"/>
<polygon fill="#8dad48" stroke="#8dad48" points="502.386,-103.527 507.18,-94.079 497.54,-98.475 502.386,-103.527"/>
<text text-anchor="middle" x="477" y="-130.4" font-family="Times Roman,serif" font-size="14.00">Ɛ</text>
</g>
<!-- E4&#45;&gt;E9 -->
<g id="edge22" class="edge"><title>E4&#45;&gt;E9</title>
<path fill="none" stroke="#8dad48" d="M452.73,-96.573C464.38,-93.417 478.63,-89.559 491.38,-86.105"/>
<polygon fill="#8dad48" stroke="#8dad48" points="492.473,-89.4353 501.21,-83.443 490.643,-82.6786 492.473,-89.4353"/>
<text text-anchor="middle" x="477" y="-95.4" font-family="Times Roman,serif" font-size="14.00">Ɛ</text>
</g>
<!-- E9&#45;&gt;E5 -->
<g id="edge10" class="edge"><title>E9&#45;&gt;E5</title>
<path fill="none" stroke="#8dad48" d="M500.4,-73.974C486.75,-72.447 469.46,-70.76 454,-70 389.19,-66.813 372.81,-66.813 308,-70 296.16,-70.582 283.25,-71.707 271.72,-72.888"/>
<polygon fill="#8dad48" stroke="#8dad48" points="271.169,-69.4269 261.6,-73.974 271.916,-76.3869 271.169,-69.4269"/>
<text text-anchor="middle" x="381" y="-72.4" font-family="Times Roman,serif" font-size="14.00">Ɛ</text>
</g>
<!-- E11 -->
<g id="node12" class="node"><title>E11</title>
<ellipse fill="none" stroke="black" cx="627" cy="-35" rx="31" ry="31"/>
<text text-anchor="middle" x="627" y="-31.4" font-family="Times Roman,serif" font-size="14.00">E11</text>
</g>
<!-- E9&#45;&gt;E11 -->
<g id="edge12" class="edge"><title>E9&#45;&gt;E11</title>
<path fill="none" stroke="#8dad48" d="M547.64,-67.679C559.75,-62.691 574.99,-56.415 588.87,-50.7"/>
<polygon fill="#8dad48" stroke="#8dad48" points="590.295,-53.8983 598.21,-46.855 587.631,-47.4253 590.295,-53.8983"/>
<text text-anchor="middle" x="573" y="-63.4" font-family="Times Roman,serif" font-size="14.00">Ɛ</text>
</g>
<!-- E12 -->
<g id="node14" class="node"><title>E12</title>
<ellipse fill="none" stroke="black" cx="739" cy="-35" rx="35" ry="35"/>
<ellipse fill="none" stroke="black" cx="739" cy="-35" rx="39" ry="39"/>
<text text-anchor="middle" x="739" y="-31.4" font-family="Times Roman,serif" font-size="14.00">E12</text>
</g>
<!-- E11&#45;&gt;E12 -->
<g id="edge14" class="edge"><title>E11&#45;&gt;E12</title>
<path fill="none" stroke="#8dad48" d="M658.2,-35C669.11,-35 681.6,-35 693.44,-35"/>
<polygon fill="#8dad48" stroke="#8dad48" points="693.63,-38.5001 703.63,-35 693.63,-31.5001 693.63,-38.5001"/>
<text text-anchor="middle" x="681" y="-40.4" font-family="Times Roman,serif" font-size="14.00">b</text>
</g>
<!-- E7 -->
<g id="node17" class="node"><title>E7</title>
<ellipse fill="none" stroke="black" cx="141" cy="-35" rx="24" ry="24.5"/>
<text text-anchor="middle" x="141" y="-31.4" font-family="Times Roman,serif" font-size="14.00">E7</text>
</g>
<!-- E7&#45;&gt;E5 -->
<g id="edge18" class="edge"><title>E7&#45;&gt;E5</title>
<path fill="none" stroke="#8dad48" d="M163.75,-44.953C176.06,-50.341 191.48,-57.084 204.99,-62.994"/>
<polygon fill="#8dad48" stroke="#8dad48" points="203.846,-66.3137 214.41,-67.118 206.653,-59.9013 203.846,-66.3137"/>
<text text-anchor="middle" x="189" y="-62.4" font-family="Times Roman,serif" font-size="14.00">Ɛ</text>
</g>
<!-- E7&#45;&gt;E11 -->
<g id="edge20" class="edge"><title>E7&#45;&gt;E11</title>
<path fill="none" stroke="#8dad48" d="M163.84,-25.549C183.03,-18.469 211.34,-10 237,-10 237,-10 237,-10 525,-10 546.33,-10 569.46,-15.22 588.3,-20.889"/>
<polygon fill="#8dad48" stroke="#8dad48" points="587.41,-24.2784 598,-23.962 589.524,-17.6053 587.41,-24.2784"/>
<text text-anchor="middle" x="381" y="-15.4" font-family="Times Roman,serif" font-size="14.00">Ɛ</text>
</g>
<!-- ∅ -->
<g id="node21" class="node"><title>∅</title>
<ellipse fill="none" stroke="black" cx="21" cy="-35" rx="19.8829" ry="18.5"/>
<text text-anchor="middle" x="21" y="-31.4" font-family="Times Roman,serif" font-size="14.00">∅</text>
</g>
<!-- ∅&#45;&gt;E7 -->
<g id="edge24" class="edge"><title>∅&#45;&gt;E7</title>
<path fill="none" stroke="#8dad48" d="M41.629,-35C59.285,-35 85.086,-35 105.97,-35"/>
<polygon fill="#8dad48" stroke="#8dad48" points="106.07,-38.5001 116.07,-35 106.07,-31.5001 106.07,-38.5001"/>
<text text-anchor="middle" x="79" y="-40.4" font-family="Times Roman,serif" font-size="14.00">Inicio</text>
</g>
</g>
</svg>
